<?xml version="1.0" standalone="no"?>
<!DOCTYPE svg PUBLIC "-//W3C//DTD SVG 20010904//EN"
 "http://www.w3.org/TR/2001/REC-SVG-20010904/DTD/svg10.dtd">
<svg version="1.0" xmlns="http://www.w3.org/2000/svg"
 width="401.000000pt" height="401.000000pt" viewBox="0 0 401.000000 401.000000"
 preserveAspectRatio="xMidYMid meet">
<metadata>
Created by potrace 1.11, written by Peter Selinger 2001-2013
</metadata>
<g transform="translate(0.000000,401.000000) scale(0.100000,-0.100000)"
fill="#000000" stroke="none">
<path d="M1906 3817 c-55 -105 -122 -237 -151 -292 -29 -55 -101 -194 -160
-310 -59 -115 -138 -268 -175 -340 -37 -71 -122 -238 -190 -370 -67 -132 -153
-298 -190 -370 -37 -71 -111 -215 -165 -320 -185 -360 -273 -531 -364 -708
l-92 -177 296 2 297 3 67 130 c37 72 125 243 196 380 70 138 158 309 195 380
37 72 120 234 185 360 65 127 146 284 180 350 62 120 281 546 328 639 l25 49
52 -104 c29 -57 81 -158 115 -224 34 -66 108 -210 165 -320 57 -110 140 -272
185 -360 45 -88 130 -252 188 -365 129 -250 313 -609 404 -787 l68 -133 113 0
112 0 -101 198 c-56 108 -134 260 -174 337 -40 77 -123 239 -185 360 -62 121
-138 270 -170 330 -32 61 -106 205 -165 320 -59 116 -140 273 -180 350 -40 77
-121 235 -180 350 -208 407 -425 828 -429 832 -1 2 -46 -84 -100 -190z"/>
<path d="M2504 1795 c-179 -57 -256 -132 -270 -262 -5 -55 -60 -213 -74 -213
-17 0 -58 59 -64 91 -3 20 -20 57 -38 83 -58 88 -147 124 -305 124 -108 1
-168 -17 -203 -60 -22 -28 -19 -35 23 -43 57 -12 111 -51 155 -113 24 -33 55
-65 68 -71 49 -22 175 -5 206 28 11 11 8 12 -17 6 -135 -32 -169 -24 -230 55
-50 65 -80 89 -140 112 l-39 16 34 21 c31 19 46 20 140 17 148 -6 234 -42 281
-120 26 -43 24 -51 -7 -27 -36 28 -128 61 -171 61 -42 0 -35 -11 16 -29 52
-17 170 -94 224 -146 44 -42 52 -56 48 -79 -1 -5 -7 -32 -12 -60 -5 -28 -12
-71 -15 -96 -7 -56 -24 -76 -74 -84 -22 -3 -56 -17 -76 -31 -20 -14 -45 -25
-55 -25 -11 0 -53 -16 -95 -35 l-75 -35 -660 0 -659 0 0 -30 0 -30 1585 0
1585 0 0 30 0 30 -527 0 -527 0 -83 36 c-46 19 -94 37 -106 38 -13 1 -40 15
-59 31 -20 16 -47 30 -60 32 -26 4 -74 37 -72 50 1 4 4 38 8 75 8 89 27 144
88 255 48 88 134 191 191 228 15 9 25 21 22 25 -11 17 -71 -18 -132 -75 -50
-48 -63 -56 -63 -40 1 34 36 100 71 134 72 69 247 134 315 117 l26 -7 -49 -52
c-35 -36 -58 -74 -77 -124 -34 -89 -63 -111 -160 -120 -37 -3 -69 -10 -72 -14
-13 -21 133 -12 182 12 44 21 52 33 84 121 25 69 50 102 102 134 44 28 45 42
2 63 -44 22 -114 21 -190 -4z"/>
<path d="M420 750 l0 -30 1585 0 1585 0 0 30 0 30 -1585 0 -1585 0 0 -30z"/>
<path d="M735 523 c-11 -20 -77 -141 -147 -267 -71 -127 -128 -234 -128 -238
0 -5 17 -8 38 -8 42 0 25 -26 184 282 l81 157 57 -112 c32 -62 83 -159 113
-217 l56 -105 42 -3 42 -3 -43 78 c-24 43 -53 96 -65 118 -130 237 -198 355
-204 355 -3 0 -15 -17 -26 -37z"/>
<path d="M1211 288 l0 -273 197 0 c168 0 197 2 198 15 1 33 -15 37 -166 36
-95 -1 -151 2 -152 9 -1 5 -2 116 -3 245 l-1 235 -37 3 -36 3 0 -273z"/>
<path d="M1698 393 c-2 -92 -1 -215 2 -273 5 -113 3 -108 60 -101 6 1 10 50
10 126 l0 125 93 1 c50 0 105 3 121 5 44 8 104 41 123 70 23 36 20 106 -6 142
-36 51 -88 66 -253 70 l-147 4 -3 -169z m294 95 c69 -34 78 -91 22 -135 -34
-25 -46 -28 -140 -31 l-104 -4 0 97 0 97 93 -3 c65 -2 103 -8 129 -21z"/>
<path d="M2259 558 c-3 -13 -3 -522 1 -531 6 -15 53 -17 61 -2 3 5 6 63 5 128
-1 110 0 117 19 118 27 1 327 1 343 0 9 -1 12 -33 12 -126 0 -69 3 -125 8
-126 4 -1 19 -2 35 -3 l27 -3 0 274 0 273 -35 0 -35 0 0 -119 0 -118 -187 1
-187 1 0 118 1 117 -34 0 c-18 0 -33 -1 -34 -2z"/>
<path d="M3095 378 c-55 -99 -115 -209 -133 -242 -18 -34 -42 -76 -52 -94
l-19 -32 42 0 43 0 94 183 c52 100 101 196 110 214 8 18 18 32 22 33 3 0 33
-53 66 -117 33 -65 83 -161 110 -213 l51 -95 42 -3 42 -3 -43 78 c-24 43 -51
92 -60 108 -9 17 -58 105 -109 198 -51 92 -96 167 -99 167 -4 0 -52 -82 -107
-182z"/>
</g>
</svg>
